<mxfile host="app.diagrams.net" modified="2021-07-29T02:34:09.558Z" agent="5.0 (Windows NT 10.0; Win64; x64) AppleWebKit/537.36 (KHTML, like Gecko) Chrome/92.0.4515.107 Safari/537.36" etag="vt3dEb9inzx9ScdAWoLE" version="14.8.0" type="github">
  <diagram id="JpssUGJAQ-6qRb9apwfv" name="Page-1">
    <mxGraphModel dx="781" dy="476" grid="1" gridSize="10" guides="1" tooltips="1" connect="1" arrows="1" fold="1" page="1" pageScale="1" pageWidth="827" pageHeight="1169" math="0" shadow="0">
      <root>
        <mxCell id="0" />
        <mxCell id="1" parent="0" />
        <mxCell id="QmvfzVTAbtV4SLnTiDGH-3" value="label:0" style="rounded=0;whiteSpace=wrap;html=1;" vertex="1" parent="1">
          <mxGeometry x="150" y="180" width="40" height="30" as="geometry" />
        </mxCell>
        <mxCell id="QmvfzVTAbtV4SLnTiDGH-4" value="bert" style="rounded=0;whiteSpace=wrap;html=1;" vertex="1" parent="1">
          <mxGeometry x="70" y="270" width="200" height="150" as="geometry" />
        </mxCell>
        <mxCell id="QmvfzVTAbtV4SLnTiDGH-5" value="wh_word = &quot;什么&quot;" style="rounded=0;whiteSpace=wrap;html=1;" vertex="1" parent="1">
          <mxGeometry x="344" y="180" width="140" height="30" as="geometry" />
        </mxCell>
        <mxCell id="QmvfzVTAbtV4SLnTiDGH-7" value="[CLS]answer[SEP]context" style="text;html=1;strokeColor=none;fillColor=none;align=center;verticalAlign=middle;whiteSpace=wrap;rounded=0;" vertex="1" parent="1">
          <mxGeometry x="150" y="450" width="40" height="20" as="geometry" />
        </mxCell>
        <mxCell id="QmvfzVTAbtV4SLnTiDGH-11" value="answer，category，context" style="text;html=1;strokeColor=none;fillColor=none;align=center;verticalAlign=middle;whiteSpace=wrap;rounded=0;" vertex="1" parent="1">
          <mxGeometry x="82.5" y="470" width="175" height="30" as="geometry" />
        </mxCell>
        <mxCell id="QmvfzVTAbtV4SLnTiDGH-13" value=" Category List --- event" style="swimlane;fontStyle=0;childLayout=stackLayout;horizontal=1;startSize=26;horizontalStack=0;resizeParent=1;resizeParentMax=0;resizeLast=0;collapsible=1;marginBottom=0;align=left;" vertex="1" parent="1">
          <mxGeometry x="344" y="264" width="140" height="156" as="geometry" />
        </mxCell>
        <mxCell id="QmvfzVTAbtV4SLnTiDGH-14" value="什么事件" style="text;strokeColor=none;fillColor=none;align=left;verticalAlign=top;spacingLeft=4;spacingRight=4;overflow=hidden;rotatable=0;points=[[0,0.5],[1,0.5]];portConstraint=eastwest;" vertex="1" parent="QmvfzVTAbtV4SLnTiDGH-13">
          <mxGeometry y="26" width="140" height="26" as="geometry" />
        </mxCell>
        <mxCell id="QmvfzVTAbtV4SLnTiDGH-15" value="什么战争" style="text;strokeColor=none;fillColor=none;align=left;verticalAlign=top;spacingLeft=4;spacingRight=4;overflow=hidden;rotatable=0;points=[[0,0.5],[1,0.5]];portConstraint=eastwest;" vertex="1" parent="QmvfzVTAbtV4SLnTiDGH-13">
          <mxGeometry y="52" width="140" height="26" as="geometry" />
        </mxCell>
        <mxCell id="QmvfzVTAbtV4SLnTiDGH-16" value="什么会议" style="text;strokeColor=none;fillColor=none;align=left;verticalAlign=top;spacingLeft=4;spacingRight=4;overflow=hidden;rotatable=0;points=[[0,0.5],[1,0.5]];portConstraint=eastwest;" vertex="1" parent="QmvfzVTAbtV4SLnTiDGH-13">
          <mxGeometry y="78" width="140" height="26" as="geometry" />
        </mxCell>
        <mxCell id="QmvfzVTAbtV4SLnTiDGH-17" value="什么" style="text;fillColor=none;align=left;verticalAlign=top;spacingLeft=4;spacingRight=4;overflow=hidden;rotatable=0;points=[[0,0.5],[1,0.5]];portConstraint=eastwest;labelBorderColor=none;" vertex="1" parent="QmvfzVTAbtV4SLnTiDGH-13">
          <mxGeometry y="104" width="140" height="26" as="geometry" />
        </mxCell>
        <mxCell id="QmvfzVTAbtV4SLnTiDGH-18" value="什么大会" style="text;strokeColor=none;fillColor=none;align=left;verticalAlign=top;spacingLeft=4;spacingRight=4;overflow=hidden;rotatable=0;points=[[0,0.5],[1,0.5]];portConstraint=eastwest;" vertex="1" parent="QmvfzVTAbtV4SLnTiDGH-13">
          <mxGeometry y="130" width="140" height="26" as="geometry" />
        </mxCell>
        <mxCell id="QmvfzVTAbtV4SLnTiDGH-21" value="answer" style="text;html=1;fillColor=none;align=center;verticalAlign=middle;whiteSpace=wrap;rounded=0;strokeColor=#000000;" vertex="1" parent="1">
          <mxGeometry x="384" y="540" width="60" height="20" as="geometry" />
        </mxCell>
        <mxCell id="QmvfzVTAbtV4SLnTiDGH-22" value="" style="endArrow=classic;html=1;exitX=0.25;exitY=1;exitDx=0;exitDy=0;entryX=0.5;entryY=1;entryDx=0;entryDy=0;rounded=0;" edge="1" parent="1" source="QmvfzVTAbtV4SLnTiDGH-11" target="QmvfzVTAbtV4SLnTiDGH-21">
          <mxGeometry width="50" height="50" relative="1" as="geometry">
            <mxPoint x="380" y="410" as="sourcePoint" />
            <mxPoint x="430" y="360" as="targetPoint" />
            <Array as="points">
              <mxPoint x="126" y="590" />
              <mxPoint x="414" y="590" />
            </Array>
          </mxGeometry>
        </mxCell>
        <mxCell id="QmvfzVTAbtV4SLnTiDGH-24" value="" style="endArrow=classic;html=1;exitX=0.5;exitY=1;exitDx=0;exitDy=0;entryX=0.512;entryY=1.103;entryDx=0;entryDy=0;entryPerimeter=0;" edge="1" parent="1" source="QmvfzVTAbtV4SLnTiDGH-11" target="QmvfzVTAbtV4SLnTiDGH-18">
          <mxGeometry width="50" height="50" relative="1" as="geometry">
            <mxPoint x="380" y="420" as="sourcePoint" />
            <mxPoint x="430" y="370" as="targetPoint" />
            <Array as="points">
              <mxPoint x="170" y="520" />
              <mxPoint x="290" y="520" />
              <mxPoint x="416" y="520" />
            </Array>
          </mxGeometry>
        </mxCell>
        <mxCell id="QmvfzVTAbtV4SLnTiDGH-30" value="cosine_sim(answer,wh_word)" style="rounded=0;whiteSpace=wrap;html=1;align=center;" vertex="1" parent="1">
          <mxGeometry x="510" y="370" width="170" height="40" as="geometry" />
        </mxCell>
        <mxCell id="QmvfzVTAbtV4SLnTiDGH-31" value="" style="endArrow=classic;html=1;exitX=1;exitY=0.75;exitDx=0;exitDy=0;" edge="1" parent="1" source="QmvfzVTAbtV4SLnTiDGH-5">
          <mxGeometry width="50" height="50" relative="1" as="geometry">
            <mxPoint x="380" y="420" as="sourcePoint" />
            <mxPoint x="660" y="380" as="targetPoint" />
            <Array as="points">
              <mxPoint x="660" y="203" />
            </Array>
          </mxGeometry>
        </mxCell>
        <mxCell id="QmvfzVTAbtV4SLnTiDGH-32" value="" style="shape=flexArrow;endArrow=classic;html=1;width=13;endSize=6.66;" edge="1" parent="1">
          <mxGeometry width="50" height="50" relative="1" as="geometry">
            <mxPoint x="484" y="310" as="sourcePoint" />
            <mxPoint x="634" y="380" as="targetPoint" />
            <Array as="points">
              <mxPoint x="514" y="310" />
              <mxPoint x="634" y="310" />
            </Array>
          </mxGeometry>
        </mxCell>
        <mxCell id="QmvfzVTAbtV4SLnTiDGH-33" value="" style="endArrow=classic;html=1;exitX=1;exitY=0.5;exitDx=0;exitDy=0;entryX=0.5;entryY=1;entryDx=0;entryDy=0;" edge="1" parent="1" source="QmvfzVTAbtV4SLnTiDGH-21" target="QmvfzVTAbtV4SLnTiDGH-30">
          <mxGeometry width="50" height="50" relative="1" as="geometry">
            <mxPoint x="380" y="420" as="sourcePoint" />
            <mxPoint x="430" y="370" as="targetPoint" />
            <Array as="points">
              <mxPoint x="595" y="550" />
            </Array>
          </mxGeometry>
        </mxCell>
        <mxCell id="QmvfzVTAbtV4SLnTiDGH-34" value="" style="endArrow=classic;html=1;exitX=1;exitY=0.5;exitDx=0;exitDy=0;" edge="1" parent="1" source="QmvfzVTAbtV4SLnTiDGH-30" target="QmvfzVTAbtV4SLnTiDGH-35">
          <mxGeometry width="50" height="50" relative="1" as="geometry">
            <mxPoint x="590" y="420" as="sourcePoint" />
            <mxPoint x="760" y="390" as="targetPoint" />
          </mxGeometry>
        </mxCell>
        <mxCell id="QmvfzVTAbtV4SLnTiDGH-35" value="wh_word" style="rounded=1;whiteSpace=wrap;html=1;strokeColor=#000000;align=center;" vertex="1" parent="1">
          <mxGeometry x="750" y="370" width="60" height="40" as="geometry" />
        </mxCell>
        <mxCell id="QmvfzVTAbtV4SLnTiDGH-37" value="" style="endArrow=classic;html=1;exitX=0.5;exitY=1;exitDx=0;exitDy=0;entryX=1;entryY=0.5;entryDx=0;entryDy=0;" edge="1" parent="1" source="QmvfzVTAbtV4SLnTiDGH-35" target="QmvfzVTAbtV4SLnTiDGH-41">
          <mxGeometry width="50" height="50" relative="1" as="geometry">
            <mxPoint x="500" y="520" as="sourcePoint" />
            <mxPoint x="230" y="630" as="targetPoint" />
            <Array as="points">
              <mxPoint x="780" y="650" />
              <mxPoint x="310" y="650" />
            </Array>
          </mxGeometry>
        </mxCell>
        <mxCell id="QmvfzVTAbtV4SLnTiDGH-38" value="" style="endArrow=classic;html=1;" edge="1" parent="1">
          <mxGeometry width="50" height="50" relative="1" as="geometry">
            <mxPoint x="220" y="500" as="sourcePoint" />
            <mxPoint x="220" y="630" as="targetPoint" />
          </mxGeometry>
        </mxCell>
        <mxCell id="QmvfzVTAbtV4SLnTiDGH-40" value="" style="endArrow=classic;html=1;exitX=0.25;exitY=1;exitDx=0;exitDy=0;" edge="1" parent="1" source="QmvfzVTAbtV4SLnTiDGH-11">
          <mxGeometry width="50" height="50" relative="1" as="geometry">
            <mxPoint x="400" y="520" as="sourcePoint" />
            <mxPoint x="126" y="630" as="targetPoint" />
          </mxGeometry>
        </mxCell>
        <mxCell id="QmvfzVTAbtV4SLnTiDGH-41" value="替换" style="rounded=0;whiteSpace=wrap;html=1;strokeColor=#000000;align=center;" vertex="1" parent="1">
          <mxGeometry x="110" y="630" width="120" height="40" as="geometry" />
        </mxCell>
        <mxCell id="QmvfzVTAbtV4SLnTiDGH-42" value="" style="endArrow=classic;html=1;exitX=0.5;exitY=1;exitDx=0;exitDy=0;" edge="1" parent="1" source="QmvfzVTAbtV4SLnTiDGH-41">
          <mxGeometry width="50" height="50" relative="1" as="geometry">
            <mxPoint x="400" y="620" as="sourcePoint" />
            <mxPoint x="170" y="700" as="targetPoint" />
          </mxGeometry>
        </mxCell>
        <mxCell id="QmvfzVTAbtV4SLnTiDGH-43" value="answer-question pair" style="rounded=1;whiteSpace=wrap;html=1;align=center;strokeColor=none;" vertex="1" parent="1">
          <mxGeometry x="110" y="700" width="120" height="60" as="geometry" />
        </mxCell>
      </root>
    </mxGraphModel>
  </diagram>
</mxfile>
